<svg xmlns="http://www.w3.org/2000/svg" viewBox="0 0 100 100">
  <circle cx="50" cy="50" r="25" fill="#363636" />
  <path d="M34,34 L29,29 L26,26 L21,24 L17,26 L17,30 L23,33 L29,40 L34,44 L36,42 L37,37 L36,34 L34,34 z" fill="#000"/>
  <path d="M66,34 L71,29 L74,26 L79,24 L83,26 L83,30 L77,33 L71,40 L66,44 L64,42 L63,37 L64,34 L66,34 z" fill="#000"/>
  <circle cx="42" cy="53" r="2" fill="#fff" />
  <circle cx="58" cy="53" r="2" fill="#fff" />
  <path d="M50,60.5 a4,4 0 0 1 -4,-4 h8 a4,4 0 0 1 -4,4 z" fill="#fff" />
</svg>
